<svg width="927" height="523" fill="none" xmlns="http://www.w3.org/2000/svg"><path d="M835.187 412.283l-52.758-17.558L771 428.963l52.758 17.558 11.429-34.238z" fill="#A94C2F"/><path d="M835.173 412.266l-52.731-17.535 31.291-11.97a3 3 0 013.61 1.203l17.83 28.302z" fill="#FF6231"/><path d="M829.74 405.189l-38.428-12.788a2 2 0 00-2.531 1.265l-10.618 31.808a1.998 1.998 0 001.264 2.529l38.429 12.788a2.002 2.002 0 002.531-1.265l10.618-31.808a2 2 0 00-1.265-2.529z" fill="#fff"/><g filter="url(#filter0_d)"><path d="M782.442 394.731l-11.429 34.234 31.639-7.143-20.21-27.091z" fill="url(#paint0_linear)"/></g><g filter="url(#filter1_d)"><path d="M835.173 412.266L823.744 446.5l-21.046-24.678 32.475-9.556z" fill="url(#paint1_linear)"/></g><path d="M823.744 446.5l-52.731-17.535 31.292-11.97a3 3 0 013.61 1.203l17.829 28.302z" fill="#FF6231"/><path d="M794.5 99.5c-9.126 10.867-20.994 44.884-32.594 53.345-32.262 25.818-44.13-29.034-68.416-22.845-39.205 9.991-30.733 60.192-46.99 78.5-21.879 24.929-80.831 41.397-91.089 69.022-15.807 41.153 18.371 81.029-12.161 127.343-7.655 11.335-16.981 25.378-9.993 36.509 26.634-.768 47.765 9.519 72.245 17.303 22.963 8.369 66.977 11.159 83.31-12.388 11.329-17.059 3.859-48.286 2.001-67.398 20.03-19.537 55.957 11.528 78.687-12.891 32.621-35.045-8.618-82.389-5.038-114.63 2.606-23.469 67.012-23.424 91.038-32.37 38.5-14.335 82.445-92.178 22.541-141-26.111-21.28-65.289-.234-83.541 21.5z" fill="#4043AF"/><path d="M849 133c-18.155 11.315-51.636 37.439-70 56M584.291 404.96c2.505-27.989 45.619-62.254 45.619-62.254m79.247-144.314c-6.235 19.607 10.675 33.78 10.675 33.78m0 0s-19.842 17.455-30.998 30.122c-12.865 14.609-19.408 23.538-29.462 40.206m60.46-70.328S750.963 217.338 779 189M594.31 293.003c2.381 32.741 35.6 49.703 35.6 49.703m0 0l29.462-40.206m0 0c24.631 7.833 33.003 24.089 63.071 20.058M779 189s37 10.5 75-17" stroke="#fff" stroke-opacity=".2" stroke-width="2" stroke-linecap="round" stroke-linejoin="round"/><path d="M172.246 131.566c3.425 8.747 3.673 32.596 9.159 40.357 14.775 23.02 33.824-8.877 47.748.143 22.478 14.561 6.544 44.258 12.869 59.181 8.45 20.265 41.945 43.067 42.536 62.565 1.209 29.158-28.666 46.94-19.312 82.45 2.404 8.73 5.283 19.512-1.455 25.016-16.544-6.117-31.975-4.135-48.977-4.431-16.174.392-44.373-7.169-49.637-25.394-3.497-13.098 7.794-31.105 13.003-42.7-8.431-16.492-37.539-4.607-46.63-24.732-13.049-28.884 22.835-49.857 27.41-70.837 3.33-15.273-37.08-28.87-50.258-39.564-21.117-17.136-32.215-75.261 15.689-93.213 20.881-7.824 41.004 13.665 47.855 31.159z" fill="#4043AF"/><path d="M130.973 141.05c8.994 10.938 24.469 34.408 32.062 49.935m76.447 176.655c4.351-18.087-15.445-48.7-15.445-48.7m-19.179-107.288c-.237 13.617-13.842 18.931-13.842 18.931m0 0s8.753 15.146 13.071 25.452c4.98 11.885 7.195 18.87 9.975 31.452m-23.046-56.904s-16.39-15.891-27.981-39.598m93.848 104.309c-8.42 20.034-32.846 23.646-32.846 23.646m0 0l-9.975-31.453m0 0c-17.107-.297-25.797 8.129-43.805-.76m-7.222-95.742s-25.43-1.241-43.449-26.529" stroke="#fff" stroke-opacity=".2" stroke-width="2" stroke-linecap="round" stroke-linejoin="round"/><path d="M269.559 53.08c10.802 0 19.559-8.759 19.559-19.564 0-10.804-8.757-19.563-19.559-19.563-10.802 0-19.559 8.759-19.559 19.563 0 10.805 8.757 19.564 19.559 19.564z" fill="url(#paint2_linear)"/><path d="M265.814 45.643l-6.852-11.87a6.173 6.173 0 012.26-8.437 6.17 6.17 0 018.435 2.26l.678 1.174 1.391-.803a6.17 6.17 0 018.435 2.26 6.172 6.172 0 01-2.261 8.436l-12.086 6.98z" fill="#fff"/><path d="M785.074 312.263c16.301 3.983 32.748-6.006 36.736-22.312 3.988-16.306-5.994-32.755-22.295-36.738-16.301-3.984-32.748 6.006-36.735 22.312-3.988 16.306 5.994 32.754 22.294 36.738z" fill="url(#paint3_linear)"/><path d="M786.773 294.263c2.581 0 4.878-.52 6.876-1.417.398-.178 1.351.654 1.351.654s.617-1.707 1-1.968c4.701-3.197 7.191-8.693 7.191-13.687 0-.25-.005-.499-.016-.746a11.715 11.715 0 002.878-2.988c-1.034.46-2.886.749-4.053.889 1.191-.715 2.846-1.825 3.277-3.172a11.593 11.593 0 01-3.664 1.401c-1.053-1.122-3.453-1.729-5.113-1.729-3.186 0-4.87 2.49-4.87 5.675 0 .453.051.893.15 1.316a16.39 16.39 0 01-11.895-6.029c-1.957 5.383 2.162 6.567 5.115 8.538-.947-.029-5.164-1.124-5.941-1.556l-.001.073c0 2.795 4.942 6.299 7.942 5.483-.485.132-4.308.377-4.834.377-.371 0-2.814.191-3.166.123.735 2.293 5 4.5 7.472 3.781a11.576 11.576 0 01-7.167 2.47c-.465 0-.925-.027-1.377-.08a16.333 16.333 0 008.845 2.592z" fill="#fff"/><path d="M255.27 131.43l22.23 4.07-89.877 43.949 67.647-48.019z" fill="#FFDF08"/><path d="M187.623 179.449L255 150l.5-4-67.877 33.449z" fill="#FFA808"/><path d="M187.624 179.449l62.99-51.085 4.657 3.062-67.647 48.023z" fill="#FFA808"/><path d="M187.624 179.45L245.5 112l5.114 16.365-62.99 51.085z" fill="#FFDF08"/><path d="M548.847 452.132a2.24 2.24 0 011.914-1.955c66.35-9.467 114.02-78.392 114.492-79.082.706-1.01 2.096-1.297 3.132-.615 1.035.681 1.296 2.095.614 3.131-.498.714-49.219 71.267-117.56 81.004-1.236.192-2.366-.694-2.533-1.904-.07-.177-.064-.378-.059-.579z" fill="#CEA6DC"/><path d="M659.905 381.592s53.992 6.521 61.282-60.616c.176-1.623-15.346 18.211-15.226 16.5.136-1.942 13.436-14.499 15.968-27.5 2.532-13-.185-18.363-1.472-29.227 0 0-9.661 18.257-40.996 34.227-14.921 7.612-23.5 25-24.5 33.5s3 17.5 3 17.5c-.036 1.183-6.228-8.649-6.15-7.5.86 12.757 8.094 23.116 8.094 23.116zm-102.622 70.757c0-.101.05-.201.051-.302.301-1.205 1.506-1.958 2.711-1.657 64.921 15.398 111.729-35.014 112.206-35.541.828-.929 2.259-1.005 3.163-.152.904.854.979 2.284.15 3.163-.477.527-49.093 52.898-116.574 36.848-1.08-.226-1.807-1.255-1.707-2.359z" fill="#CEA6DC"/><path d="M666.898 423.729s27.238 12.395 45.88-11.516c.654-.838-16.073 6.498-16.073 6.498s14.501-7.989 18.502-12.498c4-4.509 5.663-7.801 7.576-13.499.38-1.131-10.358 6.202-10.003 4.999 0 0 7.916-5.499 11.673-10.499 3.756-4.999 3.454-15.472 4.375-25.241 0 0-9.11 12.912-34.619 18.738-32.338 7.434-27.311 43.018-27.311 43.018zm-109.615 28.62c.05-.653.427-1.281 1.03-1.682 26.264-16.924 34.73-44.361 34.806-44.637.351-1.205 1.607-1.858 2.812-1.507a2.234 2.234 0 011.506 2.811c-.352 1.205-8.969 29.295-36.69 47.122-1.029.678-2.435.377-3.113-.652a2.604 2.604 0 01-.351-1.455z" fill="#CEA6DC"/><path d="M592.768 412.323s-9.693-11.231-10.728-28.096c-.06-.982 5.108 6.5 5.108 6.5s-4.5-11.5-1.5-30 11.617-27.793 62.45-52.209c0 0-4.166 10.209-9.308 22.709-5.142 12.5-15.642 22.5-15.642 22.5s15.878-11.146 15.642-10c-1.751 8.498-4.412 12.872-3.642 24 3.078 44.503-42.38 44.596-42.38 44.596z" fill="#CEA6DC"/><path d="M667.798 487.27s8.702-12.27 23.888-3.948c-.047 0-6.686 11.678-23.888 3.948zm14.512 10.199S693 494 695.139 505.875c-.022-.02-11.139 3.625-12.829-8.406zm-38.918-22.371S653 460 671.889 467.579c-.047-.047-7.389 13.421-28.497 7.519zm-27.333-10.399S624.5 442 652.503 449.661c0 0-6.503 19.839-36.444 15.038zm-35.584-8.258S589.5 432 616.918 441.403c-.047 0-8.464 18.422-36.443 15.038zm75.097 23.826s-7.072 12.233 8.323 22.699c0 0 5.605-13.966-8.323-22.699zM629.088 469s-8.088 18 10.063 27.445c0 0 8.349-17.445-10.063-27.445zm-28.23-8.531S590 479.5 612.99 493.601c0 0 9.51-21.101-12.132-33.132zm-37.133-5.861S557.5 477 583.522 483.792c0 0 5.978-19.792-19.797-29.184z" fill="#fff"/><path d="M539 454.185v-3.055c.94 0 94.659 1.363 153.72 51.788l-1.928 2.256C632.577 455.5 539.94 454.232 539 454.185z" fill="#fff"/><path d="M603 460.5a3.5 3.5 0 117 0 3.5 3.5 0 01-7 0zm-24-1a3.5 3.5 0 117 0 3.5 3.5 0 01-7 0zm40 10.5a3 3 0 116 0 3 3 0 01-6 0zm41 10.5a2.5 2.5 0 115 0 2.5 2.5 0 01-5 0z" fill="#FF6231"/><path d="M114.478 403.657s-1.401-14.977-18.714-15.363c.04.024-.048 13.457 18.714 15.363zm-17.668 1.577s-7.523-8.35-15.313.865c.03-.006 7.835 8.709 15.314-.865zm44.89.085s-.772-17.879-20.919-20.761c.064-.017-.312 15.318 20.919 20.761zm28.87 4.66s4.04-23.878-24.042-31.245c0 0-4.287 20.433 24.042 31.245zm34.946 10.641s4.405-25.679-24.042-31.245c.041.023-1.88 20.186 24.042 31.245zm-76.949-16.914s.009 14.13-18.557 15.496c0 0 2.129-14.897 18.557-15.496zm28.57 3.484s-1.996 19.632-22.438 18.736c0 0 1.493-19.282 22.438-18.736zm28.713 6.727s-.112 21.91-27.073 22.627c0 0 2.315-23.029 27.073-22.627zm35.089 13.491s-5.805 22.504-31.737 15.375c0 0 4.719-20.129 31.737-15.375z" fill="#fff"/><path d="M242.563 439.403l1.527-2.645c-.814-.47-82.658-46.149-159.02-32.01l.542 2.917c75.253-13.911 156.113 31.309 156.951 31.738z" fill="#fff"/><path d="M183.98 412.873a3.5 3.5 0 10-6.063-3.5 3.5 3.5 0 006.063 3.5zm21.284 11.134a3.5 3.5 0 10-6.06-3.5 3.5 3.5 0 006.06 3.5zm-39.89-10.907a3 3 0 10-5.199-3 3 3 0 005.199 3zm-40.757-11.407a2.5 2.5 0 10-4.332-2.499 2.5 2.5 0 004.332 2.499z" fill="#FF6231"/><path d="M647.122 257.837s7.691 4.762 14.158-3.401c-.026.011-6.436-4.906-14.158 3.401zm5.654-9.046s6.734-.578 5.141-7.658c-.007.016-7.019.597-5.141 7.658zm-16.328 21.499s8.855 6.117 17.547-2.501c-.015.037-7.234-5.707-17.547 2.501zm-12.711 12.155s9.986 10.602 23.709-.193c0 0-8.244-9.471-23.709.193zm-17.783 12.9s10.718 11.43 23.709-.194c-.026.011-8.999-8.226-23.709.194zm36.032-30.769s-6.779-5.122-.698-14.522c0 0 6.372 6.426.698 14.522zm-12.037 12.438s-8.692-8.08-.845-17.559c0 0 8.707 7.712.845 17.559zm-13.645 11.331s-10.467-8.004-1.028-21.194c0 0 10.204 9.466 1.028 21.194zm-19.202 11.934s-8.687-10.95 4.142-20.8c0 0 7.941 9.567-4.142 20.8z" fill="#fff"/><path d="M583.503 306.297l.715 1.693c.521-.22 52.125-22.899 73.051-64.653l-1.596-.799c-20.633 41.14-71.66 63.513-72.17 63.759z" fill="#fff"/><path d="M617.484 287.827a2.105 2.105 0 103.878-1.638 2.105 2.105 0 00-3.878 1.638zm-13.063 6.168a2.104 2.104 0 103.877-1.636 2.104 2.104 0 00-3.877 1.636zm19.705-15.174a1.805 1.805 0 103.325-1.407 1.805 1.805 0 00-3.325 1.407zm20.259-15.409a1.503 1.503 0 102.77-1.17 1.503 1.503 0 00-2.77 1.17z" fill="#FF6231"/><path d="M183.434 349.199s-8.648 2.653-12.831-6.885c.023.018 7.471-3.111 12.831 6.885zm-3.172-10.185s-6.367-2.27-3.029-8.713c.003.018 6.638 2.36 3.029 8.713zm10.335 24.939s-10.118 3.669-16.337-6.873c.005.04 8.445-3.684 16.337 6.873zm9.208 14.985s-12.35 7.719-22.883-6.207c0 0 10.379-7.067 22.883 6.207zm13.926 16.992s-13.269 8.334-22.883-6.207c.022.017 10.793-5.672 22.883 6.207zm-27.04-38.909s7.858-3.233 4.362-13.869c0 0-7.795 4.598-4.362 13.869zm8.485 15.087s10.458-5.609 5.275-16.77c0 0-10.379 5.249-5.275 16.77zm10.321 14.423s12.156-5.084 6.376-20.239c0 0-12.274 6.565-6.376 20.239zm15.542 16.418s11.183-8.385 1.276-21.17c0 0-10.111 7.237-1.276 21.17z" fill="#fff"/><path d="M232.665 412.223l-1.121 1.456c-.448-.345-44.603-35.383-54.243-81.082l1.746-.367c9.513 45.03 53.187 79.626 53.618 79.993z" fill="#fff"/><path d="M204.487 385.73a2.104 2.104 0 11-3.336-2.566 2.104 2.104 0 013.336 2.566zm11.069 9.283a2.105 2.105 0 11-3.336-2.569 2.105 2.105 0 013.336 2.569zm-15.207-19.68a1.803 1.803 0 11-2.858-2.201 1.803 1.803 0 112.858 2.201zm-15.683-20.047a1.505 1.505 0 11-2.383-1.837 1.505 1.505 0 012.383 1.837z" fill="#FF6231"/><path d="M693.671 164.286c13.625 0 24.671-11.048 24.671-24.676 0-13.629-11.046-24.677-24.671-24.677-13.626 0-24.671 11.048-24.671 24.677 0 13.628 11.045 24.676 24.671 24.676z" fill="url(#paint4_linear)"/><g clip-path="url(#clip0)"><path d="M692.67 149.16l-2.598 1.5a1.996 1.996 0 01-2.732-.732l-3.5-6.062a1.998 1.998 0 01.732-2.732l2.598-1.5m5.062-5.232l-2-3.464a3 3 0 00-4.098-1.098l1.036 9.794 5.5 9.526 9.768-5.64a1.998 1.998 0 00.883-2.472l-3.305-8.484a2.012 2.012 0 00-1.212-1.163 1.997 1.997 0 00-1.67.171l-4.902 2.83z" stroke="#fff" stroke-width="2" stroke-linecap="round" stroke-linejoin="round"/></g><path d="M818.79 86.16a18.66 18.66 0 01-8.78-11.303c-2.735-9.967 3.132-20.242 13.073-22.968 9.964-2.733 20.238 3.139 22.967 13.083 2.735 9.967-3.132 20.242-13.073 22.968a18.419 18.419 0 01-5.071.664c-2.419-.027-7.478 5.811-9.406 7.396.497-2.789 2.954-8.324.29-9.84z" fill="url(#paint5_linear)"/><path d="M834.075 71.763a1.862 1.862 0 10-.023-3.722 1.862 1.862 0 00.023 3.722z" fill="#fff"/><path d="M829.398 69.929a1.361 1.361 0 11-2.723.016 1.362 1.362 0 112.723-.016z" stroke="#fff"/><path d="M822.021 71.835a1.862 1.862 0 10-.023-3.725 1.862 1.862 0 00.023 3.725z" fill="#fff"/><path d="M810.708 100.785a18.657 18.657 0 002.271-15.011c-2.735-9.967-13.025-15.81-22.966-13.084-9.941 2.727-15.802 13.023-13.073 22.968 2.735 9.967 13.025 15.81 22.966 13.084a18.538 18.538 0 004.094-1.664c2.958-1.644 11.074 3.174 14.23 4.338-1.193-1.548-8.432-9.207-7.522-10.631z" fill="url(#paint6_linear)"/><path d="M788.967 92.61a1.862 1.862 0 10-.023-3.724 1.862 1.862 0 00.023 3.724zm6.027-.035a1.863 1.863 0 10-.023-3.725 1.863 1.863 0 00.023 3.725z" fill="#fff"/><path d="M802.349 90.669a1.363 1.363 0 11-2.725.016 1.363 1.363 0 012.725-.016z" stroke="#fff"/><defs><linearGradient id="paint0_linear" x1="802.652" y1="411.848" x2="771.013" y2="411.848" gradientUnits="userSpaceOnUse"><stop stop-color="#FFA979"/><stop offset="1" stop-color="#F99373"/></linearGradient><linearGradient id="paint1_linear" x1="835.173" y1="429.383" x2="802.698" y2="429.383" gradientUnits="userSpaceOnUse"><stop stop-color="#FFA979"/><stop offset="1" stop-color="#F99373"/></linearGradient><linearGradient id="paint2_linear" x1="249.986" y1="33.5" x2="289.106" y2="33.5" gradientUnits="userSpaceOnUse"><stop stop-color="#FC727C"/><stop offset="1" stop-color="#FA3A54"/></linearGradient><linearGradient id="paint3_linear" x1="796.558" y1="260.54" x2="782.676" y2="332.661" gradientUnits="userSpaceOnUse"><stop stop-color="#AE8DEF"/><stop offset=".999" stop-color="#7546D9"/></linearGradient><linearGradient id="paint4_linear" x1="654.952" y1="113.027" x2="745.968" y2="175.524" gradientUnits="userSpaceOnUse"><stop offset=".001" stop-color="#24C2E4"/><stop offset=".996" stop-color="#045FF2"/></linearGradient><linearGradient id="paint5_linear" x1="821.818" y1="27.185" x2="833.353" y2="106.597" gradientUnits="userSpaceOnUse"><stop offset=".132" stop-color="#00A373"/><stop offset="1" stop-color="#1ABBC0"/></linearGradient><linearGradient id="paint6_linear" x1="777.905" y1="99.224" x2="813.943" y2="89.334" gradientUnits="userSpaceOnUse"><stop stop-color="#FC727C"/><stop offset="1" stop-color="#FA3A54"/></linearGradient><filter id="filter0_d" x="770.013" y="391.731" width="35.638" height="38.234" filterUnits="userSpaceOnUse" color-interpolation-filters="sRGB"><feFlood flood-opacity="0" result="BackgroundImageFix"/><feColorMatrix in="SourceAlpha" values="0 0 0 0 0 0 0 0 0 0 0 0 0 0 0 0 0 0 127 0"/><feOffset dx="1" dy="-1"/><feGaussianBlur stdDeviation="1"/><feColorMatrix values="0 0 0 0 0 0 0 0 0 0 0 0 0 0 0 0 0 0 0.4 0"/><feBlend in2="BackgroundImageFix" result="effect1_dropShadow"/><feBlend in="SourceGraphic" in2="effect1_dropShadow" result="shape"/></filter><filter id="filter1_d" x="800.698" y="409.266" width="36.475" height="38.234" filterUnits="userSpaceOnUse" color-interpolation-filters="sRGB"><feFlood flood-opacity="0" result="BackgroundImageFix"/><feColorMatrix in="SourceAlpha" values="0 0 0 0 0 0 0 0 0 0 0 0 0 0 0 0 0 0 127 0"/><feOffset dy="-1"/><feGaussianBlur stdDeviation="1"/><feColorMatrix values="0 0 0 0 0 0 0 0 0 0 0 0 0 0 0 0 0 0 0.4 0"/><feBlend in2="BackgroundImageFix" result="effect1_dropShadow"/><feBlend in="SourceGraphic" in2="effect1_dropShadow" result="shape"/></filter><clipPath id="clip0"><path fill="#fff" transform="rotate(-30 587.12 -1193.898)" d="M0 0h24v24H0z"/></clipPath></defs></svg>