<svg width="99" height="17" fill="none" xmlns="http://www.w3.org/2000/svg"><path d="M6.86 16.156c-2.24 0-3.948-.616-5.124-1.848C.579 13.058 0 11.303 0 9.044V4h3.052v5.016c0 1.157.187 2.053.56 2.688.373.635.85 1.083 1.428 1.344a4.374 4.374 0 001.82.392c.71 0 1.353-.121 1.932-.364.579-.261 1.036-.71 1.372-1.344.355-.635.532-1.54.532-2.716V4h3.024v5.044c0 2.296-.579 4.06-1.736 5.292-1.139 1.213-2.847 1.82-5.124 1.82zm14.16-.392h-2.856V0h6.328c1.755 0 3.118.439 4.088 1.316.971.877 1.456 2.203 1.456 3.976 0 1.55-.504 2.763-1.512 3.64-.989.877-2.333 1.316-4.032 1.316H21.02v5.516zm3.08-13.44h-3.08v5.824h3.08c1.008 0 1.82-.243 2.436-.728.616-.485.924-1.213.924-2.184 0-.99-.308-1.717-.924-2.184-.597-.485-1.409-.728-2.436-.728z" fill="#fff"/><path d="M33.678 15.764V0h2.856v13.328h7.784v2.436h-10.64zm13.32 0L52.038 0h4.676l5.18 15.764h-3.052l-1.344-4.452h-6.132l-1.344 4.452h-3.024zm7.42-14.56L52.038 9.1h4.788l-2.408-7.896zM76.13 0h2.967v15.764h-5.432L68.261 1.26h-.056v14.504h-2.94V0h5.04l5.768 14.504h.056V0zm21.936 7.868c0 2.072-.41 3.687-1.232 4.844-.803 1.139-1.942 1.932-3.416 2.38-1.475.448-3.21.672-5.208.672h-4.34V0h4.34c1.997 0 3.733.299 5.208.896 1.474.579 2.613 1.447 3.416 2.604.821 1.157 1.232 2.613 1.232 4.368zm-11.368 5.544h2.324c1.232 0 2.296-.14 3.192-.42a3.722 3.722 0 002.072-1.652c.485-.803.728-1.97.728-3.5 0-1.81-.541-3.155-1.624-4.032-1.064-.896-2.52-1.344-4.368-1.344h-2.324v10.948z" opacity=".6" fill="#fff"/><circle cx="1.5" cy="1.5" r="1.5" fill="#FF6231"/><circle cx="12.2" cy="1.5" r="1.5" fill="#FF6231"/></svg>