<svg width="387" height="510" fill="none" xmlns="http://www.w3.org/2000/svg"><path d="M172.537 93.259c4.036 9.135 5.384 34.455 11.564 42.449 16.741 23.779 35.523-10.967 50.723-2.019 24.538 14.444 8.964 46.712 16.36 62.275 9.897 21.141 46.512 43.837 48.025 64.52 2.611 30.916-28.313 51.162-16.762 88.455 2.95 9.163 6.499 20.484-.408 26.636-17.851-5.744-34.151-2.937-52.224-2.478-17.161 1.151-47.457-5.597-53.877-24.716-4.311-13.753 6.864-33.393 11.869-45.946-9.705-17.134-40.082-3.186-50.654-24.149-15.173-30.086 21.988-53.995 25.893-76.488 2.843-16.374-40.697-28.978-55.181-39.738-23.21-17.241-37.64-78.475 12.426-99.721 21.823-9.26 44.174 12.65 52.246 30.92z" fill="#452FA6"/><path d="M129.129 105.209c10.051 11.209 27.556 35.435 36.326 51.582m89.234 184.161c3.798-19.409-18.62-51.026-18.62-51.026m-25.251-113.085c.369 14.474-13.841 20.737-13.841 20.737m0 0s9.986 15.689 15.041 26.44c5.83 12.397 8.5 19.716 12.026 32.954m-27.067-59.394s-18.131-16.133-31.522-40.787m104.426 106.526c-8.032 21.662-33.812 26.609-33.812 26.609m0 0l-12.025-32.954m0 0c-18.184.462-27.032 9.807-46.563 1.184m-12.026-101.365s-27.067-.162-47.356-26.203" stroke="#fff" stroke-opacity=".2" stroke-width="2" stroke-linecap="round" stroke-linejoin="round"/><path d="M271.451 429.147a1.935 1.935 0 01-2.084-1.118c-23.844-52.789-92.539-75.749-93.225-75.974-1.008-.343-1.582-1.428-1.265-2.451.316-1.024 1.426-1.581 2.45-1.265.713.241 71.012 23.681 95.561 78.058.456.98-.006 2.132-.97 2.561-.131.102-.299.145-.467.189z" fill="#CEA6DC"/><path d="M186.143 353.964s-7.596-46.385-65.077-36.259c-1.39.244 18.812 8.35 17.364 8.662-1.646.355-15.273-7.659-26.673-6.628-11.4 1.031-15.198 4.578-23.905 8.265 0 0 17.481 3.619 38.287 25.779 9.913 10.551 26.413 13.482 33.709 12.264 7.296-1.218 13.802-6.707 13.802-6.707.99-.255-5.678 7.253-4.743 6.912 10.381-3.788 17.236-12.288 17.236-12.288zm83.455 68.129c-.083.024-.179.007-.262.031-1.073.04-1.988-.779-2.029-1.852-2.861-57.595-55.982-84.299-56.535-84.568a1.909 1.909 0 01-.888-2.589c.491-.955 1.66-1.362 2.589-.886.553.269 55.735 28.002 58.672 87.879.073.95-.606 1.802-1.547 1.985z" fill="#CEA6DC"/><path d="M219.432 338.008s3.725-25.595-20.613-35.307c-.853-.341 9.267 11.775 9.267 11.775s-10.125-10.111-14.832-12.345c-4.706-2.234-7.84-2.821-13.03-3.036-1.03-.043 7.643 7.103 6.56 7.099 0 0-6.472-5.246-11.527-7.159-5.055-1.914-13.675.86-22.005 2.45 0 0 12.912 4.45 23.894 24.219 13.962 25.05 42.286 12.304 42.286 12.304zm50.166 84.085c-.553.115-1.165-.046-1.644-.449-20.375-17.722-45.188-18.139-45.435-18.135-1.085-.001-1.93-.886-1.928-1.971a1.93 1.93 0 011.97-1.927c1.085.002 26.476.386 47.952 19.099.811.691.9 1.93.209 2.741a2.25 2.25 0 01-1.124.642z" fill="#CEA6DC"/><path d="M227.826 402.284s-6.986 10.752-20.735 15.674c-.8.287 4.165-5.805 4.165-5.805s-8.461 6.505-24.539 8.473c-16.078 1.967-25.867-2.946-58.381-39.255 0 0 9.477.999 21.091 2.254 11.614 1.256 22.444 7.562 22.444 7.562s-13.077-10.493-12.069-10.573c7.475-.595 11.747.56 20.798-2.76 36.196-13.278 47.226 24.43 47.226 24.43z" fill="#CEA6DC"/><path d="M167.666 481.723s-10.77-10.502-24.209.419c.046-.009 8.68 10.283 24.209-.419zm-12.438 12.646s-11.14-1.487-11.106 10.579c.018-.024 11.61 1.56 11.106-10.579zm34.252-29.014s-12.169-13.121-29.385-2.264c.038-.055 9.686 11.871 29.385 2.264zm25.013-15.151s-12.39-20.808-38.555-8.23c0 0 9.969 18.344 38.555 8.23zm33.516-14.532s-13.279-22.416-38.556-8.229c.046-.009 11.644 16.596 38.556 8.229zm-69.578 36.961s9.159 10.759-4.1 23.827c0 0-8.028-12.728 4.1-23.827zm24.021-15.852s11.198 16.249-4.956 28.808c0 0-11.353-15.656 4.956-28.808zm26.232-13.475s14.108 16.764-5.967 34.774c0 0-13.154-19.043 5.967-34.774zm35.471-12.453s10.156 20.905-14.218 32.272c0 0-9.444-18.392 14.218-32.272z" fill="#fff"/><path d="M288.4 425.984l-.55-3.005c-.926.169-92.866 18.387-141.881 78.625l2.302 1.872c48.318-59.346 139.212-77.277 140.129-77.492z" fill="#fff"/><path d="M226.583 443.721a3.5 3.5 0 10-6.885 1.26 3.5 3.5 0 006.885-1.26zm23.428-5.305a3.5 3.5 0 10-6.886 1.26 3.5 3.5 0 006.886-1.26zm-37.455 17.532a2.999 2.999 0 10-5.902 1.08 3 3 0 005.902-1.08zm-38.439 17.711a2.5 2.5 0 10-4.92.901 2.5 2.5 0 004.92-.901z" fill="#FF6231"/></svg>