<svg width="461" height="519" fill="none" xmlns="http://www.w3.org/2000/svg"><path d="M256.195 110.896c-4.803 10.872-6.407 41.006-13.763 50.52-19.924 28.301-42.277-13.052-60.368-2.402-29.204 17.19-10.668 55.594-19.471 74.117-11.779 25.16-55.356 52.172-57.157 76.788-3.107 36.795 33.697 60.891 19.95 105.275-3.511 10.905-7.735 24.379.485 31.701 21.246-6.836 40.645-3.495 62.155-2.949 20.424 1.37 56.481-6.662 64.122-29.416 5.13-16.368-8.17-39.743-14.127-54.683 11.551-20.392 47.704-3.791 60.287-28.741 18.058-35.807-26.169-64.262-30.817-91.032-3.383-19.488 48.436-34.489 65.674-47.294 27.622-20.52 44.798-93.398-14.788-118.684-25.973-11.021-52.574 15.055-62.182 36.8z" fill="#543AB4"/><path d="M307.857 125.118c-11.962 13.341-32.795 42.173-43.233 61.391M158.422 405.688c-4.521-23.099 22.16-60.728 22.16-60.728m30.053-134.589c-.438 17.227 16.474 24.68 16.474 24.68m0 0s-11.886 18.673-17.902 31.468c-6.938 14.754-10.117 23.465-14.312 39.22m32.214-70.688s21.578-19.201 37.515-48.542M140.341 313.29c9.559 25.782 40.241 31.67 40.241 31.67m0 0l14.313-39.221m0 0c21.641.551 32.171 11.672 55.417 1.409m14.312-120.639s32.214-.193 56.361-31.186" stroke="#fff" stroke-opacity=".2" stroke-width="2" stroke-linecap="round" stroke-linejoin="round"/><path d="M254.495 422.935s3.346-14.665 20.561-12.785c-.044.018-1.711 13.347-20.561 12.785zm17.31 3.873s8.55-7.295 15.068 2.859c-.028-.011-8.905 7.61-15.068-2.859zm-44.515-5.782s3.101-17.625 23.452-17.849c-.061-.025-1.693 15.228-23.452 17.849zm-29.233.848s-.885-24.202 27.919-27.836c0 0 1.581 20.818-27.919 27.836zm-36.036 5.982s-1.012-26.034 27.918-27.836c-.043.018-.773 20.259-27.918 27.836zm78.499-6.713s-1.855 14.007 16.373 17.788c0 0-.164-15.048-16.373-17.788zm-28.779-.28s-.588 19.725 19.796 21.509c0 0 1.04-19.312-19.796-21.509zm-29.347 2.918s-2.752 21.737 23.884 25.97c0 0 .714-23.133-23.884-25.97zm-36.551 8.789s2.814 23.07 29.456 19.391c0 0-2.049-20.573-29.456-19.391z" fill="#fff"/><path d="M122.837 441.637l-1.169-2.822c.869-.36 87.981-34.952 161.84-10.955l-.918 2.822c-72.79-23.626-158.866 10.639-159.753 10.955z" fill="#fff"/><path d="M184.385 422.99a3.5 3.5 0 116.468-2.678 3.5 3.5 0 01-6.468 2.678zm-22.557 8.257a3.5 3.5 0 116.467-2.679 3.5 3.5 0 01-6.467 2.679zm40.974-5.6a3 3 0 115.544-2.296 3 3 0 01-5.544 2.296zm41.898-5.983a2.5 2.5 0 114.62-1.912 2.5 2.5 0 01-4.62 1.912z" fill="#FF6231"/><path d="M175.702 364.865s8.928 1.458 11.78-8.558c-.02.02-7.824-2.071-11.78 8.558zm1.763-10.52s6.001-3.111 1.821-9.043c-.001.018-6.257 3.237-1.821 9.043zm-6.862 26.109s10.521 2.265 15.256-9.023c0 .04-8.867-2.506-15.256 9.023zm-7.094 16.093s13.282 5.975 21.831-9.248c0 0-11.239-5.596-21.831 9.248zm-11.496 18.722s14.275 6.46 21.832-9.249c-.02.02-11.462-4.158-21.832 9.249zm21.522-42.212s-8.224-2.14-6.201-13.151c0 0 8.346 3.5 6.201 13.151zm-6.364 16.096s-11.122-4.14-7.498-15.9c0 0 10.994 3.795 7.498 15.9zm-8.273 15.688s-12.733-3.39-9.058-19.188c0 0 13.05 4.842 9.058 19.188zm-13.176 18.372s-12.215-6.793-4.131-20.802c0 0 10.998 5.801 4.131 20.802z" fill="#fff"/><path d="M135.46 433.977l1.307 1.29c.397-.403 39.401-41.097 42.763-87.681l-1.78-.127c-3.326 45.903-41.913 86.095-42.29 86.518z" fill="#fff"/><path d="M159.79 403.912a2.106 2.106 0 002.957-2.997 2.106 2.106 0 00-2.957 2.997zm-9.71 10.696a2.104 2.104 0 102.957-2.995 2.104 2.104 0 00-2.957 2.995zm12.401-21.558a1.805 1.805 0 102.534-2.569 1.805 1.805 0 00-2.534 2.569zm12.824-21.987a1.503 1.503 0 102.113-2.139 1.503 1.503 0 00-2.113 2.139z" fill="#FF6231"/></svg>