<svg width="211" height="422" fill="none" xmlns="http://www.w3.org/2000/svg"><path d="M139.76 204.146c-1.53 6.34.552 22.767-2.489 28.624-7.99 17.229-24.104-2.912-32.83 4.607-14.086 12.138-.322 31.06-3.263 41.922-3.899 14.737-24.785 33.584-23.35 47.051 1.922 20.171 24.15 29.581 21.07 54.89-.83 6.231-1.792 13.919 3.362 17.069 10.802-5.77 21.603-5.863 33.27-7.673 11.162-1.257 29.845-9.121 31.744-22.154 1.169-9.339-8.298-20.659-12.975-28.143 4.241-12.14 25.385-6.713 29.738-21.415 6.248-21.099-20.415-32.137-25.543-46.136-3.732-10.191 22.779-23.359 30.834-31.96 12.906-13.781 15.051-54.809-19.594-62.633-15.101-3.411-26.913 13.27-29.974 25.951z" fill="#BD93D8"/><path opacity=".5" d="M169.045 206.772c-5.154 8.373-13.582 25.977-17.338 37.375m-35.903 128.729c-4.7-12.03 6.025-34.957 6.025-34.957m3.061-75.608c1.449 9.345 11.309 11.715 11.309 11.715m0 0s-4.591 11.244-6.587 18.741c-2.303 8.645-3.167 13.659-3.892 22.576m10.479-41.317s9.773-12.478 15.508-29.879m-54.703 80.609c7.683 12.985 24.825 13.163 24.825 13.163m0 0l3.891-22.576m0 0c11.739-1.82 18.512 3.155 30.059-4.66m-4.072-66.536s17.374-3.255 27.38-22.351" stroke="#fff" stroke-width="2" stroke-linecap="round" stroke-linejoin="round"/><path d="M156.292 28.946s13.06-11.126-.67-23.404c.008.045-13.622 11.585.67 23.404zm-2.036 68.494s27.315-.417 32.567-31.04c.023.1-23.361-1.125-32.567 31.04z" fill="#4043AF"/><path d="M145.918 141.298s36.265 7.178 48.699-35.36c0 0-30.997-7.41-48.699 35.36z" fill="#FF6231"/><path d="M128.197 194.171s38.997 7.812 48.7-35.359c-.038.061-30.723-3.727-48.7 35.359zm22.547-73.254s-29.874-3.878-27.638-35.034c0 0 29.36 3.097 27.638 35.034zm-11.484 43.529s-33.429-1.1-33.377-42.271c0 0 35.042 4.51 33.377 42.271z" fill="#4043AF"/><path d="M117.184 217.416s-34.094-9.813-22.114-49.081c0 0 30.515 8.056 22.114 49.081z" fill="#FF6231"/><path d="M97.962 249.904l3.972 2.443c.752-1.223 73.93-124.172 55.598-241.296l-4.475.703c18.032 115.422-54.404 236.89-55.095 238.15z" fill="#4043AF"/><path d="M140.933 161.636a5.343 5.343 0 105.6-9.102 5.343 5.343 0 00-5.6 9.102zm-17.893 32.006a5.342 5.342 0 105.598-9.1 5.342 5.342 0 00-5.598 9.1zm18.336-60.406a4.58 4.58 0 104.798-7.803 4.58 4.58 0 00-4.798 7.803zm19.137-61.709a3.816 3.816 0 103.999-6.501 3.816 3.816 0 00-3.999 6.501zm-8.587-14.789a3.816 3.816 0 103.999-6.5 3.816 3.816 0 00-3.999 6.5zm7.117-18.963a3.816 3.816 0 103.999-6.501 3.816 3.816 0 00-3.999 6.501zm1.311 10.773a3.818 3.818 0 104-6.504 3.818 3.818 0 00-4 6.504zm1.312 10.774a3.816 3.816 0 103.999-6.501 3.816 3.816 0 00-3.999 6.501zm-10.376 7.673a3.816 3.816 0 103.999-6.501 3.816 3.816 0 00-3.999 6.5zm1.273-20.513a3.817 3.817 0 103.998-6.502 3.817 3.817 0 00-3.998 6.502zm-.796-12.722a3.816 3.816 0 103.999-6.501 3.816 3.816 0 00-3.999 6.501z" fill="#FF6231"/><path d="M51.467 223.256s2.04-.517 5.312-1.155c.206-.04 3.018 6.233 3.018 6.233s-1.97-6.434-1.754-6.473c.98-.183 2.044-.37 3.178-.555.169-.027 2.628 7.712 2.628 7.712s-1.82-7.841-1.668-7.865c1.224-.191 2.52-.376 3.865-.547.215-.027 2.105 9.68 2.105 9.68s-1.024-9.813-.806-9.838a116.16 116.16 0 014.923-.469c.077-.005.404 2.833.731 5.675l.735 5.697s-.647-11.428-.47-11.439a87.674 87.674 0 015.389-.182c.126-.001.914 13.271.914 13.271s-.103-13.269.113-13.266a59.02 59.02 0 016.455.407c.196.024-1.187 15.048-1.187 15.048s2.26-14.904 2.501-14.867c2.665.407 5.16 1.046 7.345 1.987.263.113-4.752 15.194-4.752 15.194s6.166-14.527 6.477-14.36c2.56 1.375 4.907 3.258 7.043 5.44.188.193-8.016 13.48-8.016 13.48s8.976-12.465 9.173-12.246c1.85 2.053 3.528 4.318 5.033 6.642.15.232-7.516 10.347-7.516 10.347s8.19-9.285 8.303-9.103a79.143 79.143 0 013.426 6.183c.139.276-4.892 6.908-4.892 6.908s5.578-5.507 5.713-5.222c3.178 6.705 4.775 12.143 4.775 12.143s-5.55 1.487-13.05 2.232c-.432.043-3.354-8.883-3.798-8.846-.436.037 1.606 9.038 1.16 9.068a76.13 76.13 0 01-6.757.179c-.46-.009-2.47-13.181-2.933-13.2-.349-.014.851 13.127.501 13.107-2.674-.154-5.368-.487-7.974-1.066-.382-.085 1.102-14.932.724-15.028-.385-.098-2.632 14.556-3.012 14.447-2.187-.629-4.283-1.456-6.22-2.523-.233-.129 3.543-14.437 3.31-14.574-.437-.259-4.88 13.644-5.313 13.358-1.834-1.215-3.621-2.672-5.34-4.285-.276-.259 5.582-11.705 5.31-11.972-.382-.373-6.893 10.43-7.267 10.043a73.279 73.279 0 01-4.209-4.77c-.208-.257 5.922-8.081 5.717-8.339-.273-.345-6.88 6.876-7.146 6.53a105.993 105.993 0 01-3.446-4.752c-.309-.451 3.761-5.199 3.467-5.642-.181-.272-4.731 3.759-4.906 3.491a132.138 132.138 0 01-3.3-5.324c-.197-.335 3.397-.554 3.215-.871-.204-.352-4.181-.799-4.366-1.126-1.577-2.793-2.461-4.597-2.461-4.597z" fill="#CEA6DC"/></svg>