<svg width="150" height="309" fill="none" xmlns="http://www.w3.org/2000/svg"><path d="M114.165 138.015a1.389 1.389 0 01-1.326-1.061C102.874 96.568 57.35 71.408 56.895 71.16a1.424 1.424 0 01-.575-1.896c.357-.682 1.214-.931 1.896-.574.472.263 47.066 25.971 57.322 67.57a1.384 1.384 0 01-1.019 1.683c-.105.054-.23.063-.354.072z" fill="#4043AF"/><path d="M63.71 73.81s.675-33.747-41.238-34.081c-1.013-.008 12.199 8.346 11.135 8.378-1.208.037-9.789-7.397-17.974-8.154-8.185-.756-11.329 1.254-17.958 2.724 0 0 11.874 4.832 23.682 23.192 5.627 8.742 16.897 12.96 22.209 13.05 5.31.09 10.62-2.938 10.62-2.938.733-.052-4.954 4.382-4.25 4.263 7.825-1.323 13.773-6.434 13.773-6.434z" fill="#FF6231"/><path d="M113.775 132.792c-.062.006-.127-.018-.189-.012a1.395 1.395 0 01-1.192-1.572c5.479-41.047-28.558-66.824-28.914-67.086a1.37 1.37 0 01-.29-1.944c.471-.61 1.35-.746 1.944-.289.356.262 35.715 27.034 29.992 69.703-.073.68-.663 1.194-1.351 1.2z" fill="#4043AF"/><path d="M89.296 66.876s5.964-17.59-9.96-27.618c-.558-.352 5.012 9.522 5.012 9.522s-5.834-8.459-8.867-10.65c-3.033-2.19-5.17-3.012-8.807-3.84-.722-.165 4.473 6.011 3.708 5.867 0 0-3.887-4.547-7.208-6.557-3.32-2.01-9.769-1.173-15.859-1.135 0 0 8.54 4.824 13.72 20.216 6.599 19.509 28.261 14.195 28.261 14.195z" fill="#BD93D8"/><path d="M113.775 132.792a1.405 1.405 0 01-1.102-.531c-12.082-15.169-29.551-18.695-29.726-18.724-.766-.142-1.247-.877-1.105-1.643a1.385 1.385 0 011.642-1.104c.766.142 18.648 3.72 31.378 19.732.482.594.384 1.48-.21 1.963-.277.2-.581.293-.877.307z" fill="#4043AF"/><path d="M86.854 113.363s-6.333 6.683-16.684 8.369c-.603.098 3.697-3.558 3.697-3.558s-6.823 3.493-18.434 2.789c-11.61-.705-17.884-5.449-36.117-35.325 0 0 6.563 1.939 14.601 4.338 8.039 2.4 14.866 8.263 14.866 8.263s-7.869-9.113-7.147-9.039c5.357.554 8.223 1.925 15.048.76 27.291-4.664 30.17 23.403 30.17 23.403z" fill="#4043AF"/><path d="M.75 118.827s5.31.832 13.628 2.606c.523.112.802 17.435.802 17.435s1.86-16.857 2.404-16.736c2.482.553 5.17 1.177 8.017 1.877.423.104-1.603 20.47-1.603 20.47s3.63-19.966 4.008-19.871a355.21 355.21 0 019.62 2.576c.531.151-4.81 24.51-4.81 24.51s7.48-23.742 8.016-23.584a296.58 296.58 0 0112.024 3.809c.187.064-1.905 6.962-4 13.869L44.84 159.71s9.993-27.108 10.421-26.958a227.911 227.911 0 0112.826 4.936c.297.126-11.223 31.642-11.223 31.642s13.125-30.829 13.628-30.609c5.125 2.244 10.097 4.695 14.734 7.362.436.25-17.94 33.668-17.94 33.668s20.313-32.269 20.842-31.943c5.842 3.591 11.052 7.552 15.231 11.902.504.524-26.454 30.462-26.454 30.462s29.1-27.511 29.661-26.815c4.619 5.731 8.232 12.425 11.045 19.601.249.634-32.385 23.247-32.385 23.247s33.617-19.941 33.858-19.239c2.271 6.595 3.926 13.507 5.118 20.385.119.687-28.058 16.49-28.058 16.49s28.569-13.36 28.65-12.826c.912 6.064 1.481 12.053 1.812 17.724.046.779-18.437 11.135-18.437 11.135s18.634-7.207 18.664-6.414c.701 18.688-1.028 32.867-1.028 32.867s-14.52-2.072-32.867-7.804c-1.057-.33 1.08-23.906 0-24.261-1.06-.348-5.335 22.526-6.413 22.154-5.222-1.803-10.64-3.894-16.033-6.304-1.07-.479 7.48-32.982 6.413-33.486-.803-.379-11.225 31.246-12.024 30.852-6.119-3.016-12.107-6.465-17.636-10.397-.812-.577 17.625-33.484 16.834-34.083-.804-.608-20.836 31.093-21.617 30.462-4.498-3.63-8.584-7.628-12.051-12.024-.42-.531 22.853-29.913 22.445-30.462-.765-1.032-25.196 26.745-25.921 25.652-3.08-4.636-5.805-9.787-8.214-15.231-.387-.874 24.887-21.557 24.516-22.445-.52-1.245-26.676 17.3-27.164 16.032-1.914-4.966-3.595-10.093-5.07-15.231-.23-.801 22.033-12.826 21.813-13.628-.295-1.069-23.068 9.084-23.345 8.017a263.588 263.588 0 01-3.297-14.43c-.27-1.351 14.06-8.3 13.815-9.619-.15-.809-14.884 4.001-15.025 3.206a328.416 328.416 0 01-2.38-15.609c-.125-.971 8.528 2.093 8.419 1.18-.122-1.019-9.004-6.008-9.108-6.949C1.007 123.884.75 118.827.75 118.827z" fill="#CEA6DC"/><path d="M49.65 285.958s1.137-1.771 3.09-4.472c.123-.17 6.462 2.491 6.462 2.491s-5.833-3.354-5.703-3.53c.59-.802 1.24-1.667 1.942-2.576.105-.135 7.187 3.837 7.187 3.837s-6.684-4.484-6.59-4.604c.764-.976 1.582-1.996 2.449-3.04.138-.167 8.15 5.631 8.15 5.631s-7.452-6.466-7.31-6.634a115.704 115.704 0 013.276-3.706c.052-.056 2.23 1.793 4.41 3.645l4.428 3.659s-8.28-7.904-8.157-8.033a88.03 88.03 0 013.81-3.814c.093-.087 9.734 9.067 9.734 9.067s-9.139-9.62-8.98-9.765a58.93 58.93 0 014.993-4.112c.16-.116 9.413 11.8 9.413 11.8s-8.531-12.428-8.33-12.566c2.224-1.523 4.483-2.761 6.721-3.566.27-.097 6.91 14.342 6.91 14.342s-5.421-14.821-5.08-14.911c2.809-.744 5.81-.973 8.86-.839.27.012 3.354 15.321 3.354 15.321s-1.96-15.236-1.666-15.21c2.754.236 5.526.744 8.212 1.413.269.066 1.58 12.691 1.58 12.691s-.362-12.376-.155-12.32a78.986 78.986 0 016.726 2.174c.29.108 1.146 8.388 1.146 8.388s.312-7.832.605-7.717c6.902 2.727 11.782 5.606 11.782 5.606s-3.037 4.878-8.005 10.545c-.287.327-8.518-4.196-8.816-3.866-.293.325 7.346 5.504 7.041 5.831a76.506 76.506 0 01-4.812 4.746c-.342.308-10.809-7.939-11.16-7.636-.264.227 9.589 9.005 9.32 9.229-2.058 1.714-4.253 3.312-6.552 4.669-.337.199-9.396-11.658-9.737-11.469-.348.191 8.021 12.428 7.67 12.607-2.027 1.035-4.123 1.864-6.266 2.407-.259.065-7.275-12.964-7.54-12.905-.495.11 5.757 13.299 5.246 13.385-2.17.366-4.47.522-6.827.519-.379 0-3.92-12.361-4.3-12.37-.534-.012 2.09 12.325 1.553 12.298a73.034 73.034 0 01-6.332-.609c-.328-.045-1.196-9.946-1.522-9.995-.435-.065-.327 9.721-.758 9.651a106.122 106.122 0 01-5.763-1.117c-.533-.118-.804-6.366-1.322-6.488-.318-.075-.887 5.976-1.198 5.9a131.908 131.908 0 01-6.047-1.634c-.372-.11 2.102-2.725 1.753-2.831-.39-.119-3.6 2.272-3.958 2.159-3.06-.962-4.937-1.676-4.937-1.676z" fill="#4043AF"/><path opacity=".3" d="M25.6 150.091s44.892 29.66 76.957 89.783" stroke="#fff" stroke-width=".5"/></svg>